# xmcd
#
# Track frame offsets: 
#        150
#        19072
#        54282
#        72085
#        106642
#        165275
#        201417
#        233175
#        244912
#
# Disc length: 3603 seconds
#
# Revision: 6
# Processed by: cddbd v1.5.2PL0 Copyright (c) Steve Scherf et al.
# Submitted via: ExactAudioCopy v1.0b1
#
DISCID=6a0e1109
DTITLE=Buddy Guy - Live! The Real Deal
DYEAR=1996
DGENRE=Blues
TTITLE0=I Got My Eyes On You
TTITLE1=Sweet Black Angel (Black Angel Blues)
TTITLE2=Talk To Me Baby
TTITLE3=My Time After Awhile
TTITLE4=I've Got News For You
TTITLE5=Damn Right I've Got The Blues
TTITLE6=First Time I Met The Blues
TTITLE7=Ain't That Lovin' You
TTITLE8=Let Me Love You Baby
EXTD=YEAR: 1996
EXTT0=
EXTT1=
EXTT2=
EXTT3=
EXTT4=
EXTT5=
EXTT6=
EXTT7=
EXTT8=
PLAYORDER=
